<mxfile host="app.diagrams.net" modified="2022-10-12T04:38:20.697Z" agent="5.0 (Windows NT 10.0; Win64; x64) AppleWebKit/537.36 (KHTML, like Gecko) Chrome/105.0.0.0 Safari/537.36" etag="cuWx7DYndRmb6NQuo-Rj" version="20.3.7" type="github">
  <diagram id="C_52Ca0h4Aw3n_u4SL9l" name="Página-1">
    <mxGraphModel dx="1038" dy="539" grid="1" gridSize="10" guides="1" tooltips="1" connect="1" arrows="1" fold="1" page="1" pageScale="1" pageWidth="1169" pageHeight="827" math="0" shadow="0">
      <root>
        <mxCell id="0" />
        <mxCell id="1" parent="0" />
        <mxCell id="GZpbhepSpUe1rYxqUkZz-1" value="&lt;font color=&quot;#0000cc&quot;&gt;PROVEEDORES&lt;/font&gt;" style="whiteSpace=wrap;html=1;align=center;strokeColor=#0000CC;" vertex="1" parent="1">
          <mxGeometry x="740" y="280" width="100" height="40" as="geometry" />
        </mxCell>
        <mxCell id="GZpbhepSpUe1rYxqUkZz-2" value="&lt;font color=&quot;#0000cc&quot;&gt;PIEZAS&lt;/font&gt;" style="whiteSpace=wrap;html=1;align=center;strokeColor=#0000CC;" vertex="1" parent="1">
          <mxGeometry x="160" y="280" width="100" height="40" as="geometry" />
        </mxCell>
        <mxCell id="GZpbhepSpUe1rYxqUkZz-3" value="&lt;font color=&quot;#0000cc&quot;&gt;CATEGORÍAS&amp;nbsp;&lt;/font&gt;" style="whiteSpace=wrap;html=1;align=center;strokeColor=#0000CC;" vertex="1" parent="1">
          <mxGeometry x="160" y="680" width="100" height="40" as="geometry" />
        </mxCell>
        <mxCell id="GZpbhepSpUe1rYxqUkZz-4" value="&lt;font color=&quot;#0000cc&quot;&gt;nombre&lt;/font&gt;" style="ellipse;whiteSpace=wrap;html=1;align=center;strokeColor=#0000CC;" vertex="1" parent="1">
          <mxGeometry x="20" y="360" width="100" height="40" as="geometry" />
        </mxCell>
        <mxCell id="GZpbhepSpUe1rYxqUkZz-5" value="&lt;font color=&quot;#0000cc&quot;&gt;dirección&amp;nbsp;&lt;/font&gt;" style="ellipse;whiteSpace=wrap;html=1;align=center;strokeColor=#0000CC;" vertex="1" parent="1">
          <mxGeometry x="730" y="200" width="100" height="40" as="geometry" />
        </mxCell>
        <mxCell id="GZpbhepSpUe1rYxqUkZz-6" value="&lt;font color=&quot;#0000cc&quot;&gt;ciudad&lt;/font&gt;" style="ellipse;whiteSpace=wrap;html=1;align=center;strokeColor=#0000CC;" vertex="1" parent="1">
          <mxGeometry x="870" y="200" width="100" height="40" as="geometry" />
        </mxCell>
        <mxCell id="GZpbhepSpUe1rYxqUkZz-7" value="&lt;font color=&quot;#0000cc&quot;&gt;provincia&lt;/font&gt;" style="ellipse;whiteSpace=wrap;html=1;align=center;strokeColor=#0000CC;" vertex="1" parent="1">
          <mxGeometry x="920" y="280" width="100" height="40" as="geometry" />
        </mxCell>
        <mxCell id="GZpbhepSpUe1rYxqUkZz-8" value="código&amp;nbsp;" style="ellipse;whiteSpace=wrap;html=1;align=center;fontStyle=4;" vertex="1" parent="1">
          <mxGeometry x="270" y="200" width="100" height="40" as="geometry" />
        </mxCell>
        <mxCell id="GZpbhepSpUe1rYxqUkZz-9" value="código&amp;nbsp;" style="ellipse;whiteSpace=wrap;html=1;align=center;fontStyle=4;strokeColor=#000000;" vertex="1" parent="1">
          <mxGeometry x="840" y="360" width="100" height="40" as="geometry" />
        </mxCell>
        <mxCell id="GZpbhepSpUe1rYxqUkZz-10" value="&lt;font color=&quot;#0000cc&quot;&gt;nombre&lt;/font&gt;" style="ellipse;whiteSpace=wrap;html=1;align=center;strokeColor=#0000CC;" vertex="1" parent="1">
          <mxGeometry x="580" y="200" width="100" height="40" as="geometry" />
        </mxCell>
        <mxCell id="GZpbhepSpUe1rYxqUkZz-11" value="&lt;font color=&quot;#0000cc&quot;&gt;color&lt;/font&gt;" style="ellipse;whiteSpace=wrap;html=1;align=center;strokeColor=#0000CC;" vertex="1" parent="1">
          <mxGeometry x="20" y="280" width="100" height="40" as="geometry" />
        </mxCell>
        <mxCell id="GZpbhepSpUe1rYxqUkZz-12" value="&lt;font color=&quot;#0000cc&quot;&gt;precio&lt;/font&gt;" style="ellipse;whiteSpace=wrap;html=1;align=center;strokeColor=#0000CC;" vertex="1" parent="1">
          <mxGeometry x="20" y="200" width="100" height="40" as="geometry" />
        </mxCell>
        <mxCell id="GZpbhepSpUe1rYxqUkZz-13" value="&lt;font color=&quot;#0000cc&quot;&gt;categoría&amp;nbsp;&lt;/font&gt;" style="ellipse;whiteSpace=wrap;html=1;align=center;strokeColor=#0000CC;" vertex="1" parent="1">
          <mxGeometry x="150" y="200" width="100" height="40" as="geometry" />
        </mxCell>
        <mxCell id="GZpbhepSpUe1rYxqUkZz-14" value="&lt;font color=&quot;#0000cc&quot;&gt;nombre&lt;/font&gt;" style="ellipse;whiteSpace=wrap;html=1;align=center;strokeColor=#0000CC;" vertex="1" parent="1">
          <mxGeometry x="60" y="760" width="100" height="40" as="geometry" />
        </mxCell>
        <mxCell id="GZpbhepSpUe1rYxqUkZz-15" value="código&amp;nbsp;" style="ellipse;whiteSpace=wrap;html=1;align=center;fontStyle=4;" vertex="1" parent="1">
          <mxGeometry x="240" y="760" width="100" height="40" as="geometry" />
        </mxCell>
        <mxCell id="GZpbhepSpUe1rYxqUkZz-16" value="&lt;font color=&quot;#ff0000&quot;&gt;SUMINISTRA&lt;/font&gt;" style="shape=rhombus;perimeter=rhombusPerimeter;whiteSpace=wrap;html=1;align=center;strokeColor=#FF0000;" vertex="1" parent="1">
          <mxGeometry x="400" y="270" width="120" height="60" as="geometry" />
        </mxCell>
        <mxCell id="GZpbhepSpUe1rYxqUkZz-18" value="&lt;font color=&quot;#ff0000&quot;&gt;TIENE&lt;/font&gt;" style="shape=rhombus;perimeter=rhombusPerimeter;whiteSpace=wrap;html=1;align=center;strokeColor=#FF0000;" vertex="1" parent="1">
          <mxGeometry x="140" y="480" width="120" height="60" as="geometry" />
        </mxCell>
      </root>
    </mxGraphModel>
  </diagram>
</mxfile>
